<mxfile host="app.diagrams.net" modified="2021-01-09T09:35:59.802Z" agent="5.0 (Windows NT 10.0; Win64; x64) AppleWebKit/537.36 (KHTML, like Gecko) Chrome/87.0.4280.88 Safari/537.36" etag="614EczQWT6fW8iKN1JY6" version="14.1.8" type="github">
  <diagram id="-b68cmkpjly45NJEYMcE" name="Page-1">
    <mxGraphModel dx="2164" dy="1963" grid="1" gridSize="10" guides="1" tooltips="1" connect="1" arrows="1" fold="1" page="1" pageScale="1" pageWidth="827" pageHeight="1169" math="0" shadow="0">
      <root>
        <mxCell id="0" />
        <mxCell id="1" parent="0" />
        <mxCell id="J-GAMBitPqSNVD4_ut0o-17" value="" style="edgeStyle=orthogonalEdgeStyle;rounded=0;orthogonalLoop=1;jettySize=auto;html=1;" edge="1" parent="1" source="J-GAMBitPqSNVD4_ut0o-1" target="J-GAMBitPqSNVD4_ut0o-12">
          <mxGeometry relative="1" as="geometry" />
        </mxCell>
        <mxCell id="J-GAMBitPqSNVD4_ut0o-1" value="TSF Consul" style="rounded=0;whiteSpace=wrap;html=1;" vertex="1" parent="1">
          <mxGeometry x="-180" y="160" width="400" height="60" as="geometry" />
        </mxCell>
        <mxCell id="J-GAMBitPqSNVD4_ut0o-19" value="" style="edgeStyle=orthogonalEdgeStyle;rounded=0;orthogonalLoop=1;jettySize=auto;html=1;" edge="1" parent="1" source="J-GAMBitPqSNVD4_ut0o-2" target="J-GAMBitPqSNVD4_ut0o-18">
          <mxGeometry relative="1" as="geometry" />
        </mxCell>
        <mxCell id="J-GAMBitPqSNVD4_ut0o-2" value="Zookeeper" style="rounded=0;whiteSpace=wrap;html=1;" vertex="1" parent="1">
          <mxGeometry x="300" y="160" width="120" height="60" as="geometry" />
        </mxCell>
        <mxCell id="J-GAMBitPqSNVD4_ut0o-8" value="" style="edgeStyle=orthogonalEdgeStyle;rounded=0;orthogonalLoop=1;jettySize=auto;html=1;" edge="1" parent="1" source="J-GAMBitPqSNVD4_ut0o-4" target="J-GAMBitPqSNVD4_ut0o-7">
          <mxGeometry relative="1" as="geometry" />
        </mxCell>
        <mxCell id="J-GAMBitPqSNVD4_ut0o-4" value="jarvis service provider" style="rounded=1;whiteSpace=wrap;html=1;" vertex="1" parent="1">
          <mxGeometry x="-190" y="390" width="610" height="60" as="geometry" />
        </mxCell>
        <mxCell id="J-GAMBitPqSNVD4_ut0o-7" value="jarvisx-tsf-atom" style="shape=process;whiteSpace=wrap;html=1;backgroundOutline=1;" vertex="1" parent="1">
          <mxGeometry x="200" y="280" width="120" height="60" as="geometry" />
        </mxCell>
        <mxCell id="J-GAMBitPqSNVD4_ut0o-16" value="" style="edgeStyle=orthogonalEdgeStyle;rounded=0;orthogonalLoop=1;jettySize=auto;html=1;" edge="1" parent="1" source="J-GAMBitPqSNVD4_ut0o-12" target="J-GAMBitPqSNVD4_ut0o-15">
          <mxGeometry relative="1" as="geometry" />
        </mxCell>
        <mxCell id="J-GAMBitPqSNVD4_ut0o-12" value="jarvisx-tsf-atom" style="shape=process;whiteSpace=wrap;html=1;backgroundOutline=1;" vertex="1" parent="1">
          <mxGeometry x="100" y="40" width="120" height="60" as="geometry" />
        </mxCell>
        <mxCell id="J-GAMBitPqSNVD4_ut0o-15" value="jarvis api gateway" style="rounded=1;whiteSpace=wrap;html=1;" vertex="1" parent="1">
          <mxGeometry x="100" y="-70" width="120" height="60" as="geometry" />
        </mxCell>
        <mxCell id="J-GAMBitPqSNVD4_ut0o-18" value="jarvis api gateway" style="rounded=1;whiteSpace=wrap;html=1;" vertex="1" parent="1">
          <mxGeometry x="300" y="40" width="120" height="60" as="geometry" />
        </mxCell>
        <mxCell id="J-GAMBitPqSNVD4_ut0o-23" value="" style="endArrow=classic;html=1;exitX=0.5;exitY=0;exitDx=0;exitDy=0;entryX=0.5;entryY=1;entryDx=0;entryDy=0;rounded=0;edgeStyle=orthogonalEdgeStyle;" edge="1" parent="1" source="J-GAMBitPqSNVD4_ut0o-7" target="J-GAMBitPqSNVD4_ut0o-2">
          <mxGeometry width="50" height="50" relative="1" as="geometry">
            <mxPoint x="240" y="300" as="sourcePoint" />
            <mxPoint x="290" y="250" as="targetPoint" />
          </mxGeometry>
        </mxCell>
        <mxCell id="J-GAMBitPqSNVD4_ut0o-26" value="register" style="edgeLabel;html=1;align=center;verticalAlign=middle;resizable=0;points=[];" vertex="1" connectable="0" parent="J-GAMBitPqSNVD4_ut0o-23">
          <mxGeometry x="0.35" y="-2" relative="1" as="geometry">
            <mxPoint x="-18" y="-2" as="offset" />
          </mxGeometry>
        </mxCell>
        <mxCell id="J-GAMBitPqSNVD4_ut0o-24" value="" style="endArrow=classic;html=1;exitX=0.5;exitY=0;exitDx=0;exitDy=0;entryX=0.5;entryY=1;entryDx=0;entryDy=0;edgeStyle=orthogonalEdgeStyle;rounded=0;" edge="1" parent="1" source="J-GAMBitPqSNVD4_ut0o-7" target="J-GAMBitPqSNVD4_ut0o-1">
          <mxGeometry width="50" height="50" relative="1" as="geometry">
            <mxPoint x="150" y="230" as="sourcePoint" />
            <mxPoint x="200" y="180" as="targetPoint" />
          </mxGeometry>
        </mxCell>
        <mxCell id="J-GAMBitPqSNVD4_ut0o-25" value="register" style="edgeLabel;html=1;align=center;verticalAlign=middle;resizable=0;points=[];" vertex="1" connectable="0" parent="J-GAMBitPqSNVD4_ut0o-24">
          <mxGeometry x="-0.1875" y="-4" relative="1" as="geometry">
            <mxPoint x="-25" y="4" as="offset" />
          </mxGeometry>
        </mxCell>
        <mxCell id="J-GAMBitPqSNVD4_ut0o-27" value="jarvisx-context-server-tsf" style="shape=process;whiteSpace=wrap;html=1;backgroundOutline=1;" vertex="1" parent="1">
          <mxGeometry x="-180" y="280" width="190" height="60" as="geometry" />
        </mxCell>
        <mxCell id="J-GAMBitPqSNVD4_ut0o-28" value="jarvisx-context-server-tsf" style="shape=process;whiteSpace=wrap;html=1;backgroundOutline=1;" vertex="1" parent="1">
          <mxGeometry x="-180" y="40" width="190" height="60" as="geometry" />
        </mxCell>
        <mxCell id="J-GAMBitPqSNVD4_ut0o-29" value="jarvis service client" style="rounded=1;whiteSpace=wrap;html=1;" vertex="1" parent="1">
          <mxGeometry x="-196" y="-180" width="610" height="60" as="geometry" />
        </mxCell>
      </root>
    </mxGraphModel>
  </diagram>
</mxfile>
